<svg width="428" height="123" viewBox="0 0 428 123" fill="none" xmlns="http://www.w3.org/2000/svg">
<path d="M411.75 121.25L411 120.75C410.333 119.417 410.042 118 410.125 116.5C410.208 115 410.167 113.5 410 112L410.5 109.25L410.25 108.25L411 89.75L410.75 89.5C409.583 91.1667 408.375 92.75 407.125 94.25C405.875 95.75 404.667 97.3333 403.5 99L402.5 99.25L397.75 104.5L395.5 106L394.25 107.75C393.25 108.25 392.292 108.833 391.375 109.5C390.458 110.167 389.417 110.417 388.25 110.25L387.5 109.75L387 107L387.5 106.25L391.75 103.75L392.25 102.75L396 99.25L399.5 95.75H400C401.5 93.75 403 91.75 404.5 89.75C406 87.75 407.333 85.6667 408.5 83.5H406.5L405.5 83.75L401 83.5L393.5 84.25C392.833 84.0833 392.083 84 391.25 84C390.417 84 389.75 83.75 389.25 83.25L388.75 80.5L389.25 79.75C389.917 79.25 390.625 79.0417 391.375 79.125C392.125 79.2083 392.917 79.25 393.75 79.25L395.5 79.5L405.75 78.75L406.25 79L410.75 78.5L411 78.25V67L411.5 66.25L414.25 65.75L415.75 67.5V78H416.5C418.167 77.8333 419.792 77.5 421.375 77C422.958 76.5 424.667 76.25 426.5 76.25C427.167 76.5833 427.583 77.0417 427.75 77.625C427.917 78.2083 427.917 78.8333 427.75 79.5C426.083 80.6667 424.208 81.4167 422.125 81.75C420.042 82.0833 418 82.4167 416 82.75L415.25 100V111L414.75 113.5L415 120C414.667 120.667 414.208 121.083 413.625 121.25C413.042 121.417 412.417 121.417 411.75 121.25Z" fill="#333333"/>
<path d="M344.5 122.25L343 120.75V118.75L343.5 118L346.25 116C349.75 111.5 351.917 106.458 352.75 100.875C353.583 95.2917 354.083 89.75 354.25 84.25L353.75 73L354.5 71.75L357.25 71.25C358.25 73.5833 358.75 76.125 358.75 78.875C358.75 81.625 358.833 84.3333 359 87C358.667 93 357.917 99 356.75 105C355.583 111 352.75 116.25 348.25 120.75C347.75 121.25 347.208 121.667 346.625 122C346.042 122.333 345.333 122.417 344.5 122.25ZM332 102.25L331.25 101.75L330.25 99.5V86.75C330.083 84.25 329.917 81.75 329.75 79.25C329.583 76.75 329.333 74.3333 329 72L330 69.5L332.75 69C333.917 71.5 334.5 74.25 334.5 77.25C334.5 80.25 334.667 83.25 335 86.25V98.75L335.25 101C334.917 101.667 334.458 102.083 333.875 102.25C333.292 102.417 332.667 102.417 332 102.25Z" fill="#333333"/>
<path d="M278.75 118.75L278 118.25L277.25 115.75L277.5 107.75L277.25 103H276.5C274.167 104.667 271.917 106.458 269.75 108.375C267.583 110.292 265.167 111.583 262.5 112.25L261.75 111.75L261.25 109C263.75 107.167 266.167 105.25 268.5 103.25C270.833 101.25 273.333 99.4167 276 97.75H277.25L277.5 93.75H270.75C269.417 93.9167 268.083 94.25 266.75 94.75C265.417 95.25 264.083 95.5833 262.75 95.75L262 95.25V94.75H261.5L260.75 92.75L261.5 91C264 90.3333 266.583 89.7917 269.25 89.375C271.917 88.9583 274.667 88.8333 277.5 89V86.25L277 83.25L277.5 82.5C277.833 82.1667 278.292 82 278.875 82C279.458 82 280 82 280.5 82C281.5 82.8333 282.042 83.875 282.125 85.125C282.208 86.375 282.25 87.6667 282.25 89C283.25 89 284.333 88.9583 285.5 88.875C286.667 88.7917 287.583 89.1667 288.25 90L288.5 92.25C287.833 93.25 286.917 93.75 285.75 93.75C284.583 93.75 283.417 93.75 282.25 93.75L282 98L282.25 102.5L282 107L282.25 116.25L281 118.5L278.75 118.75Z" fill="#333333"/>
<path d="M208 119.5L205.25 118.5L204.75 115.75L205.25 115C207.083 114.833 208.792 114.417 210.375 113.75C211.958 113.083 213.417 112 214.75 110.5L215 110C216.5 108.833 217.75 107.5 218.75 106C219.75 104.5 220.75 103 221.75 101.5C223.75 98.5 225.458 95.2917 226.875 91.875C228.292 88.4583 229.167 85 229.5 81.5H229C225.333 82.1667 221.625 82.625 217.875 82.875C214.125 83.125 210.333 83.25 206.5 83.25L201.5 83L198 83.25L193.75 82L193.25 79.25L193.75 78.5C194.25 78.1667 194.792 78 195.375 78C195.958 78 196.583 78 197.25 78C197.75 78.3333 198.375 78.5 199.125 78.5C199.875 78.5 200.583 78.5 201.25 78.5L206.5 78.25L210.75 78.5C214.75 78.5 218.667 78.25 222.5 77.75C226.333 77.25 230.167 76.75 234 76.25C234.667 76.5833 235.042 77.0833 235.125 77.75C235.208 78.4167 235.25 79.0833 235.25 79.75C234.25 86.4167 232.167 92.7917 229 98.875C225.833 104.958 221.75 110.417 216.75 115.25C215.417 116.25 214.042 117.125 212.625 117.875C211.208 118.625 209.667 119.167 208 119.5Z" fill="#333333"/>
<path d="M141 122.5L139.5 121L138.75 108L139 106L138.75 103.5L139.75 88V71.75L140.75 69.25L143.5 68.75C144.167 69.0833 144.542 69.5833 144.625 70.25C144.708 70.9167 144.75 71.5833 144.75 72.25L144.5 72.5V88L148 91.75C150.833 92.75 153.667 93.8333 156.5 95C159.333 96.1667 162.167 97.1667 165 98L165.25 100.25C164.75 101.083 164.167 101.583 163.5 101.75C162.833 101.917 162.083 101.917 161.25 101.75C158.417 100.583 155.583 99.5 152.75 98.5C149.917 97.5 147.083 96.25 144.25 94.75L143.5 105L143.75 108.5L143.5 111.75L144.25 121.25C143.917 121.917 143.458 122.333 142.875 122.5C142.292 122.667 141.667 122.667 141 122.5Z" fill="#333333"/>
<path d="M63 97.25L61.25 96.5L60.75 93.75L61.25 93C63.75 92.5 66.3333 92.1667 69 92C71.6667 91.8333 74.3333 91.6667 77 91.5H87.25L95.5 92L99.25 91.75L100 92L112.5 91.25C113.167 91.5833 113.583 92.0417 113.75 92.625C113.917 93.2083 113.917 93.8333 113.75 94.5C111.75 95.8333 109.417 96.4583 106.75 96.375C104.083 96.2917 101.5 96.4167 99 96.75L96 96.5L93 96.75L79.5 96.25L78.75 96.5L77.25 96.25L63 97.25Z" fill="#333333"/>
<path d="M44 75.75L39.25 73.25L37.75 68.5L39 66C40 65.3333 41.0417 64.7917 42.125 64.375C43.2083 63.9583 44.4167 63.75 45.75 63.75C46.75 64.25 47.6667 64.875 48.5 65.625C49.3333 66.375 50 67.25 50.5 68.25V72C50 72.6667 49.4167 73.3333 48.75 74C48.0833 74.6667 47.3333 75.1667 46.5 75.5L44 75.75ZM45.25 70.75L45.75 69.75L45 68.75L43 69.25V70L45 71L45.25 70.75ZM23.5 119.75L21.25 118.5C20.5833 117.542 19.75 116.604 18.75 115.688C17.75 114.771 17.3333 113.562 17.5 112.062L18 111.312L20.75 110.75L21.25 111.25L21.75 99.75L21.5 98L22 84H21.25C18.75 84.7083 16.2083 85.2083 13.625 85.5C11.0417 85.7917 8.41667 86.125 5.75 86.5L5 86L4.5 83.25L5 82.5C7.66667 81.625 10.4167 81.0417 13.25 80.75C16.0833 80.4583 18.9167 79.9583 21.75 79.25V69.75L21.5 66.5L22.25 65.25L25 64.75C26.1667 66.75 26.7083 69 26.625 71.5C26.5417 74 26.5 76.5 26.5 79H27C29.8333 78.625 32.6667 78.2083 35.5 77.75C38.3333 77.2917 41.25 76.875 44.25 76.5C44.9167 76.8333 45.3333 77.2917 45.5 77.875C45.6667 78.4583 45.6667 79.0833 45.5 79.75C42.6667 81.125 39.6667 82 36.5 82.375C33.3333 82.75 30.1667 83.2083 27 83.75L26.25 99L26.5 103.5L26.25 110.5L26.5 118.25C26.1667 118.75 25.7083 119.125 25.125 119.375C24.5417 119.625 24 119.75 23.5 119.75ZM1.25 114.812L0.5 114.312L0 111.562C2.16667 109.021 4.04167 106.292 5.625 103.375C7.20833 100.417 8.33333 97.2708 9 93.9375L11.75 93.375C12.4167 93.7083 12.7917 94.2083 12.875 94.875C12.9583 95.5417 13 96.2083 13 96.875C12.5 100.208 11.375 103.354 9.625 106.312C7.875 109.271 5.83333 112 3.5 114.5L1.25 114.812ZM46.25 110C44.0833 107.5 42.0417 104.938 40.125 102.312C38.2083 99.6875 36.3333 97.0417 34.5 94.375V92.125L35 91.375L37.75 90.875C39.75 94 41.9167 96.9167 44.25 99.625C46.5833 102.333 48.3333 105.354 49.5 108.688C49.1667 109.354 48.7083 109.771 48.125 109.938C47.5417 110.104 46.9167 110.125 46.25 110Z" fill="#333333"/>
<path d="M373.5 52.25L372.75 51.75L372 49.75L372.75 48H373.25L373.75 47C374.75 46.3333 375.583 45.4583 376.25 44.375C376.917 43.2916 377.5 42.25 378 41.25C378.333 40.4166 378.625 39.5 378.875 38.5C379.125 37.5 379.25 36.4166 379.25 35.25C378.583 33.75 377.75 32.3333 376.75 31C375.75 29.6666 374.583 28.4166 373.25 27.25C371.917 26.75 370.667 26.1666 369.5 25.5C368.333 24.8333 367 24.4166 365.5 24.25C365 28.25 364.25 32.2083 363.25 36.125C362.25 40.0416 360.25 43.5 357.25 46.5C355.917 47.8333 354.417 48.8333 352.75 49.5C351.083 50.1666 349.25 50.4166 347.25 50.25C346.25 50.0833 345.292 49.7083 344.375 49.125C343.458 48.5416 342.583 47.9166 341.75 47.25C340.417 45.5833 339.583 43.7083 339.25 41.625C338.917 39.5416 338.75 37.4166 338.75 35.25C339.25 33.5833 340 32 341 30.5C342 29 343.083 27.5 344.25 26C347.083 23.6666 350.125 21.875 353.375 20.625C356.625 19.375 360.083 18.9166 363.75 19.25C366.917 19.5833 369.917 20.375 372.75 21.625C375.583 22.875 378.083 24.8333 380.25 27.5C381.417 29 382.417 30.5833 383.25 32.25C384.083 33.9166 384.333 35.8333 384 38C383.667 40.3333 382.958 42.5 381.875 44.5C380.792 46.5 379.417 48.3333 377.75 50L377 50.25L375.75 52L373.5 52.25ZM352.5 44.25L357 39.5C357.833 37 358.583 34.4583 359.25 31.875C359.917 29.2916 360.333 26.6666 360.5 24H359.5C357.167 24.1666 355 24.8333 353 26C351 27.1666 349.083 28.5 347.25 30C346.417 31.3333 345.542 32.625 344.625 33.875C343.708 35.125 343.333 36.5833 343.5 38.25C343.667 39.25 343.875 40.2916 344.125 41.375C344.375 42.4583 344.75 43.4166 345.25 44.25C345.917 44.5833 346.625 44.9166 347.375 45.25C348.125 45.5833 348.917 45.6666 349.75 45.5L352.5 44.25Z" fill="#333333"/>
<path d="M301.25 59L300.5 58.5C300.167 58 299.958 57.4583 299.875 56.875C299.792 56.2917 299.75 55.6667 299.75 55L300.25 54.25C301.083 53.9167 301.958 53.7083 302.875 53.625C303.792 53.5417 304.583 53.0833 305.25 52.25C307.75 48.75 309.333 45 310 41C310.667 37 311 32.9167 311 28.75L309.5 13.75L310 13L312.75 12.5C314.25 15.6667 315.125 19.0417 315.375 22.625C315.625 26.2083 315.75 29.8333 315.75 33.5C315.583 37.6667 314.958 41.7083 313.875 45.625C312.792 49.5417 310.833 53.0833 308 56.25C307 57.0833 305.958 57.75 304.875 58.25C303.792 58.75 302.583 59 301.25 59ZM289.25 39.25L288.5 38.75C287.333 36.5833 286.75 34.1667 286.75 31.5C286.75 28.8333 286.667 26.25 286.5 23.75V13.5L286 7.5L286.75 5.75L289.5 5.25C290.5 6.25 290.917 7.5 290.75 9C290.583 10.5 290.75 11.8333 291.25 13V23L292 31.75C293.167 31.0833 294.25 30.3333 295.25 29.5C296.25 28.6667 297.5 28.25 299 28.25C299.667 28.5833 300.083 29.0417 300.25 29.625C300.417 30.2083 300.417 30.8333 300.25 31.5C298.75 32.6667 297.208 33.8333 295.625 35C294.042 36.1667 292.583 37.5833 291.25 39.25H289.25Z" fill="#333333"/>
<path d="M220.75 56L220 55.5C219.667 55.1667 219.5 54.7083 219.5 54.125C219.5 53.5417 219.5 53 219.5 52.5L220.25 51.25L224.75 47.25H225.25C227.25 44.5833 229.333 41.875 231.5 39.125C233.667 36.375 235.583 33.5 237.25 30.5L237 30.25C234.833 30.75 232.625 31.0833 230.375 31.25C228.125 31.4167 225.917 31.6667 223.75 32L222.75 31.75L220.5 32L219.75 31.5L219.25 28.75L219.75 28C220.25 27.5 220.875 27.2083 221.625 27.125C222.375 27.0417 223.167 27 224 27L225 27.25C228.167 26.9167 231.25 26.5417 234.25 26.125C237.25 25.7083 240.333 25.1667 243.5 24.5C244.167 24.8333 244.583 25.2917 244.75 25.875C244.917 26.4583 244.917 27.0833 244.75 27.75L239.25 36.75C239.917 37.0833 240.333 37.5417 240.5 38.125C240.667 38.7083 240.667 39.3333 240.5 40C239.833 41 239.375 42.125 239.125 43.375C238.875 44.625 238.75 45.9167 238.75 47.25L239.5 49.25C240.667 49.5833 241.833 49.875 243 50.125C244.167 50.375 245.417 50.4167 246.75 50.25L249.5 49.75C250.167 50.0833 250.583 50.5417 250.75 51.125C250.917 51.7083 250.917 52.3333 250.75 53C249.917 54 248.917 54.5833 247.75 54.75C246.583 54.9167 245.417 55.0833 244.25 55.25C242.75 54.9167 241.292 54.5833 239.875 54.25C238.458 53.9167 237.167 53.25 236 52.25C235.167 51.4167 234.625 50.5 234.375 49.5C234.125 48.5 233.917 47.4167 233.75 46.25C231.75 48.4167 229.708 50.375 227.625 52.125C225.542 53.875 223.25 55.1667 220.75 56ZM239.5 16.5C237.5 15.5 235.542 14.3333 233.625 13C231.708 11.6667 229.75 10.4167 227.75 9.25C227.417 8.91667 227.208 8.45833 227.125 7.875C227.042 7.29167 227 6.75 227 6.25L227.5 5.5L230.25 5C232.25 6.33333 234.25 7.70833 236.25 9.125C238.25 10.5417 240.333 11.8333 242.5 13L242.75 15.25C242.417 15.9167 241.958 16.3333 241.375 16.5C240.792 16.6667 240.167 16.6667 239.5 16.5Z" fill="#333333"/>
<path d="M132.75 56L132 55.5L131.25 53.5C133.583 47.8333 135.583 42.0833 137.25 36.25C138.917 30.4167 140 24.5 140.5 18.5H139.25L132 19.25L130.25 18.5L129.75 15.75L130.25 15C131.917 14.5 133.75 14.2083 135.75 14.125C137.75 14.0417 139.667 13.9167 141.5 13.75C141.5 12.0833 141.458 10.4583 141.375 8.875C141.292 7.29167 141.667 5.83333 142.5 4.5L145.25 4C145.917 4.33333 146.292 4.83333 146.375 5.5C146.458 6.16667 146.5 6.83333 146.5 7.5L146.25 12.5H147C149.333 11.8333 151.583 11.1667 153.75 10.5C155.917 9.83333 158.25 9.41667 160.75 9.25C161.417 9.58333 161.792 10.0833 161.875 10.75C161.958 11.4167 162 12.0833 162 12.75C159.5 13.9167 156.833 14.8333 154 15.5C151.167 16.1667 148.417 16.9167 145.75 17.75C144.917 24.25 143.708 30.75 142.125 37.25C140.542 43.75 138.167 49.9167 135 55.75L132.75 56ZM168 53.75C166 53.25 164 52.7917 162 52.375C160 51.9583 158.167 51.1667 156.5 50L156 47.25L156.5 46.5L159.25 46C160.917 47 162.708 47.7083 164.625 48.125C166.542 48.5417 168.5 48.8333 170.5 49C170.833 48.6667 171.208 48.5 171.625 48.5C172.042 48.5 172.5 48.5 173 48.5C173.667 48.8333 174.083 49.2917 174.25 49.875C174.417 50.4583 174.417 51.0833 174.25 51.75C173.417 52.75 172.458 53.3333 171.375 53.5C170.292 53.6667 169.167 53.75 168 53.75ZM166.5 35.25L165.75 34.75C165.417 34.4167 165.25 33.9583 165.25 33.375C165.25 32.7917 165.25 32.25 165.25 31.75C165.917 31.0833 166.333 30.2917 166.5 29.375C166.667 28.4583 166.833 27.5833 167 26.75H166L162 27.25C161.167 26.9167 160.292 26.8333 159.375 27C158.458 27.1667 157.667 27 157 26.5L156.5 23.75L157 23C157.667 22.5 158.458 22.25 159.375 22.25C160.292 22.25 161.167 22.25 162 22.25L164 22.5C165.333 22.3333 166.542 21.9583 167.625 21.375C168.708 20.7917 170 20.5833 171.5 20.75C172.167 21.0833 172.542 21.5833 172.625 22.25C172.708 22.9167 172.75 23.5833 172.75 24.25C172.25 26.0833 171.792 27.9583 171.375 29.875C170.958 31.7917 170.083 33.5 168.75 35L166.5 35.25Z" fill="#333333"/>
<path d="M107 11.75C106.5 11.4167 106.083 10.9583 105.75 10.375C105.417 9.79167 105.083 9.25 104.75 8.75C104.75 7.75 104.5 6.83333 104 6C103.5 5.16667 103.333 4.16667 103.5 3L104 2.25L106.75 1.75C107.917 2.91667 108.75 4.25 109.25 5.75C109.75 7.25 110.083 8.83333 110.25 10.5C109.917 11.1667 109.458 11.5833 108.875 11.75C108.292 11.9167 107.667 11.9167 107 11.75ZM113.5 9L112.75 8.5L110.75 4H110.25L109.75 1.25L110.25 0.5L113 0L115.25 2.25C115.583 3.08333 115.958 3.91667 116.375 4.75C116.792 5.58333 116.917 6.58333 116.75 7.75C116.417 8.41667 115.958 8.83333 115.375 9C114.792 9.16667 114.167 9.16667 113.5 9ZM67.75 54.25L66.25 53.5C64.9167 49.1667 64.125 44.75 63.875 40.25C63.625 35.75 63.4167 31.25 63.25 26.75C63.4167 23.25 63.6667 19.7083 64 16.125C64.3333 12.5417 64.8333 9 65.5 5.5L68.25 5C68.9167 5.33333 69.2917 5.83333 69.375 6.5C69.4583 7.16667 69.5 7.83333 69.5 8.5C69.1667 12 68.8333 15.5 68.5 19C68.1667 22.5 68 26.0833 68 29.75L69.25 46.5H69.75C70.0833 46 70.5417 45.7083 71.125 45.625C71.7083 45.5417 72.3333 45.5 73 45.5C73.6667 45.8333 74.0833 46.2917 74.25 46.875C74.4167 47.4583 74.4167 48.0833 74.25 48.75L69.75 54.25H67.75ZM92.25 49.25C91.5833 49.0833 90.9167 48.7917 90.25 48.375C89.5833 47.9583 88.9167 47.5833 88.25 47.25C87.4167 46.25 86.75 45.125 86.25 43.875C85.75 42.625 85.5833 41.25 85.75 39.75L87.75 36.5C88.75 35.8333 89.7917 35.3333 90.875 35C91.9583 34.6667 93.1667 34.5833 94.5 34.75L97.25 35V29.25L96.75 25.25H95.75C94.25 25.5833 92.75 25.9167 91.25 26.25C89.75 26.5833 88.1667 26.75 86.5 26.75L84.75 26L84.25 23.25L84.75 22.5C86.75 22.1667 88.6667 21.8333 90.5 21.5C92.3333 21.1667 94.25 20.8333 96.25 20.5V20L95.25 15.25L96 13.25H94.75C93.25 13.5833 91.7083 13.875 90.125 14.125C88.5417 14.375 86.9167 14.5 85.25 14.5L84.5 14L84 11.25L84.5 10.5C87.8333 9.83333 91.25 9.20833 94.75 8.625C98.25 8.04167 101.833 7.66667 105.5 7.5C106.167 8 106.625 8.54167 106.875 9.125C107.125 9.70833 107.167 10.4167 107 11.25C106.667 11.9167 106.208 12.3333 105.625 12.5C105.042 12.6667 104.417 12.6667 103.75 12.5L101.25 12.25L98.75 13C99.75 13.8333 100.292 14.8333 100.375 16C100.458 17.1667 100.667 18.25 101 19.25H102L105 18.75C105.667 19.0833 106.083 19.5417 106.25 20.125C106.417 20.7083 106.417 21.3333 106.25 22C105.583 22.6667 104.833 23.125 104 23.375C103.167 23.625 102.333 23.8333 101.5 24V26L102.75 38C104.25 38.8333 105.708 39.7917 107.125 40.875C108.542 41.9583 110 43 111.5 44L111.75 46.5C111.417 47.1667 110.958 47.5833 110.375 47.75C109.792 47.9167 109.167 47.9167 108.5 47.75C107.333 46.9167 106.167 46 105 45C103.833 44 102.583 43.1667 101.25 42.5C100.75 43.6667 100.083 44.7917 99.25 45.875C98.4167 46.9583 97.4167 47.9167 96.25 48.75L92.25 49.25ZM94 44.25C94.6667 43.9167 95.2083 43.375 95.625 42.625C96.0417 41.875 96.4167 41.1667 96.75 40.5C96.0833 40 95.3333 39.7083 94.5 39.625C93.6667 39.5417 92.8333 39.5 92 39.5L90.5 41L92.25 44.25L93.75 44.5L94 44.25ZM97.5 35L97.25 34.75L97 35L97.25 35.25L97.5 35ZM96.5 13.25L96 13L95.75 13.25L96.25 13.5L96.5 13.25Z" fill="#333333"/>
<path d="M28.25 55.25L26.75 54.5L25.5 53.25C23.3333 51.5833 21.375 49.6667 19.625 47.5C17.875 45.3333 15.9167 43.3333 13.75 41.5L6.25 33.5C5.75 33 5.45833 32.4167 5.375 31.75C5.29167 31.0833 5.25 30.4167 5.25 29.75C7.25 27.0833 9.25 24.4583 11.25 21.875C13.25 19.2917 15.3333 16.75 17.5 14.25L21 10.25L23.75 7.25L25.75 5.25L28.5 4.75C29.1667 5.08333 29.5833 5.54167 29.75 6.125C29.9167 6.70833 29.9167 7.33333 29.75 8C26.4167 11.6667 23.125 15.375 19.875 19.125C16.625 22.875 13.5 26.75 10.5 30.75C13.8333 34.4167 17.2083 38.0833 20.625 41.75C24.0417 45.4167 27.6667 48.8333 31.5 52V54C31.1667 54.6667 30.7083 55.0833 30.125 55.25C29.5417 55.4167 28.9167 55.4167 28.25 55.25Z" fill="#333333"/>
</svg>
