<svg width="1262" height="3" viewBox="0 0 1262 3" fill="none" xmlns="http://www.w3.org/2000/svg">
<path d="M9.01465 9.1922e-07C9.84291 0.000196811 10.5146 0.671695 10.5146 1.5C10.5146 2.32831 9.84291 2.99981 9.01465 3L-2.62268e-07 3C-0.828427 3 -1.5 2.32843 -1.5 1.5C-1.5 0.671573 -0.828427 5.87108e-08 0 1.31134e-07L9.01465 9.1922e-07ZM45.0713 4.07139e-06C45.8997 4.14381e-06 46.5713 0.671577 46.5713 1.5C46.5713 2.32843 45.8997 3 45.0713 3L27.043 3C26.2145 3 25.543 2.32843 25.543 1.5C25.543 0.671575 26.2145 2.42288e-06 27.043 2.49531e-06L45.0713 4.07139e-06ZM81.1289 7.22365e-06C81.9572 0.00018869 82.6289 0.671692 82.6289 1.50001C82.6289 2.32832 81.9572 2.99983 81.1289 3.00001L63.0996 3.00001C62.2714 2.99979 61.5996 2.3283 61.5996 1.50001C61.5996 0.671709 62.2714 0.000217882 63.0996 5.64748e-06L81.1289 7.22365e-06ZM117.186 1.03758e-05C118.014 1.04482e-05 118.686 0.671583 118.686 1.50001C118.686 2.32844 118.014 3.00001 117.186 3.00001L99.1572 3.00001C98.3288 3.00001 97.6572 2.32844 97.6572 1.50001C97.6572 0.671582 98.3288 8.72731e-06 99.1572 8.79973e-06L117.186 1.03758e-05ZM153.243 1.35281e-05C154.071 0.000178505 154.743 0.671688 154.743 1.50001C154.743 2.32834 154.071 2.99985 153.243 3.00001L135.214 3.00001C134.386 2.99978 133.714 2.3283 133.714 1.50001C133.714 0.671727 134.386 0.000242732 135.214 1.19519e-05L153.243 1.35281e-05ZM189.3 1.66802e-05C190.128 1.67527e-05 190.8 0.67159 190.8 1.50002C190.8 2.32844 190.128 3.00002 189.3 3.00002L171.271 3.00002C170.443 3.00002 169.771 2.32844 169.771 1.50001C169.771 0.671588 170.443 1.50317e-05 171.271 1.51042e-05L189.3 1.66802e-05ZM225.357 1.98325e-05C226.186 0.000184809 226.857 0.671695 226.857 1.50002C226.857 2.32835 226.186 2.99986 225.357 3.00002L207.328 3.00002C206.5 2.99978 205.828 2.3283 205.828 1.50002C205.828 0.671739 206.5 0.00025728 207.328 1.82563e-05L225.357 1.98325e-05ZM261.414 2.29847e-05C262.242 2.30571e-05 262.914 0.671596 262.914 1.50002C262.914 2.32845 262.242 3.00002 261.414 3.00002L243.386 3.00002C242.557 3.00002 241.886 2.32845 241.886 1.50002C241.886 0.671594 242.557 2.13362e-05 243.386 2.14086e-05L261.414 2.29847e-05ZM297.472 2.61369e-05C298.3 0.000191114 298.972 0.671701 298.972 1.50003C298.972 2.32835 298.3 2.99986 297.472 3.00003L279.442 3.00002C278.614 2.99979 277.942 2.32831 277.942 1.50002C277.942 0.67174 278.614 0.000255341 279.442 2.45608e-05L297.472 2.61369e-05ZM333.528 2.92891e-05C334.357 2.93615e-05 335.028 0.671602 335.028 1.50003C335.028 2.32846 334.357 3.00003 333.528 3.00003L315.5 3.00003C314.672 3.00003 314 2.32845 314 1.50003C314 0.6716 314.672 2.76406e-05 315.5 2.7713e-05L333.528 2.92891e-05ZM369.586 3.24414e-05C370.414 0.000197418 371.086 0.671707 371.086 1.50003C371.086 2.32836 370.414 2.99987 369.586 3.00003L351.557 3.00003C350.728 2.9998 350.057 2.32832 350.057 1.50003C350.057 0.671746 350.728 0.000261645 351.557 3.08652e-05L369.586 3.24414e-05ZM405.643 3.55935e-05C406.471 3.5666e-05 407.143 0.671609 407.143 1.50004C407.143 2.32846 406.471 3.00004 405.643 3.00004L387.614 3.00003C386.786 3.00003 386.114 2.32846 386.114 1.50003C386.114 0.671607 386.786 3.3945e-05 387.614 3.40174e-05L405.643 3.55935e-05ZM441.7 3.87458e-05C442.528 0.000203723 443.2 0.671713 443.2 1.50004C443.2 2.32836 442.528 2.99987 441.7 3.00004L423.671 3.00004C422.843 2.99981 422.171 2.32832 422.171 1.50004C422.171 0.671752 422.843 0.00026795 423.671 3.71696e-05L441.7 3.87458e-05ZM477.757 4.1898e-05C478.585 4.19704e-05 479.257 0.671615 479.257 1.50004C479.257 2.32847 478.585 3.00004 477.757 3.00004L459.729 3.00004C458.9 3.00004 458.229 2.32847 458.229 1.50004C458.229 0.671613 458.9 4.02495e-05 459.729 4.03219e-05L477.757 4.1898e-05ZM513.814 4.50502e-05C514.643 0.000210027 515.314 0.67172 515.314 1.50005C515.314 2.32837 514.643 2.99988 513.814 3.00005L495.785 3.00004C494.957 2.99981 494.285 2.32833 494.285 1.50004C494.285 0.671759 494.957 0.000274263 495.785 4.3474e-05L513.814 4.50502e-05ZM549.871 4.82024e-05C550.7 4.82748e-05 551.371 0.671621 551.371 1.50005C551.371 2.32848 550.7 3.00005 549.871 3.00005L531.843 3.00005C531.014 3.00005 530.343 2.32847 530.343 1.50005C530.343 0.671619 531.014 4.65539e-05 531.843 4.66263e-05L549.871 4.82024e-05ZM585.929 5.13546e-05C586.757 0.000216332 587.429 0.671726 587.429 1.50005C587.429 2.32838 586.757 2.99989 585.929 3.00005L567.899 3.00005C567.071 2.99982 566.399 2.32833 566.399 1.50005C566.399 0.671765 567.071 0.000280559 567.899 4.97785e-05L585.929 5.13546e-05ZM621.985 5.45068e-05C622.814 5.45792e-05 623.485 0.671628 623.485 1.50005C623.485 2.32848 622.814 3.00005 621.985 3.00005L603.957 3.00005C603.129 3.00005 602.457 2.32848 602.457 1.50005C602.457 0.671626 603.129 5.28583e-05 603.957 5.29307e-05L621.985 5.45068e-05ZM658.043 5.76591e-05C658.871 0.000222636 659.543 0.671732 659.543 1.50006C659.543 2.32838 658.871 2.99989 658.043 3.00006L640.014 3.00006C639.185 2.99983 638.514 2.32834 638.514 1.50006C638.514 0.671771 639.185 0.000286863 640.014 5.60829e-05L658.043 5.76591e-05ZM694.1 6.08112e-05C694.928 6.08837e-05 695.6 0.671634 695.6 1.50006C695.6 2.32849 694.928 3.00006 694.1 3.00006L676.071 3.00006C675.243 3.00006 674.571 2.32849 674.571 1.50006C674.571 0.671632 675.243 5.91627e-05 676.071 5.92352e-05L694.1 6.08112e-05ZM730.157 6.39635e-05C730.986 0.00022894 731.657 0.671739 731.657 1.50006C731.657 2.32839 730.986 2.9999 730.157 3.00006L712.128 3.00006C711.3 2.99983 710.628 2.32835 710.628 1.50006C710.628 0.671778 711.3 0.000293168 712.128 6.23873e-05L730.157 6.39635e-05ZM766.214 6.71157e-05C767.042 6.71881e-05 767.714 0.67164 767.714 1.50007C767.714 2.32849 767.042 3.00007 766.214 3.00007L748.186 3.00007C747.357 3.00007 746.686 2.32849 746.686 1.50007C746.686 0.671638 747.357 6.54672e-05 748.186 6.55396e-05L766.214 6.71157e-05ZM802.271 7.02679e-05C803.1 0.000202268 803.771 0.671725 803.771 1.50007C803.771 2.32842 803.1 2.99994 802.271 3.00007L784.242 3.00007C783.414 2.99984 782.742 2.32835 782.742 1.50007C782.742 0.671784 783.414 0.000299472 784.242 6.86918e-05L802.271 7.02679e-05ZM838.328 7.34201e-05C839.157 7.34925e-05 839.828 0.671646 839.828 1.50007C839.828 2.3285 839.157 3.00007 838.328 3.00007L820.3 3.00007C819.471 3.00007 818.8 2.3285 818.8 1.50007C818.8 0.671645 819.471 7.17716e-05 820.3 7.1844e-05L838.328 7.34201e-05ZM874.386 7.65724e-05C875.214 0.000241549 875.886 0.671751 875.886 1.50008C875.886 2.3284 875.214 2.99991 874.386 3.00008L856.356 3.00007C855.528 2.99984 854.856 2.32836 854.856 1.50007C854.856 0.67179 855.528 0.000305776 856.356 7.49962e-05L874.386 7.65724e-05ZM910.442 7.97245e-05C911.271 7.9797e-05 911.942 0.671653 911.942 1.50008C911.942 2.32851 911.271 3.00008 910.442 3.00008L892.414 3.00008C891.586 3.00008 890.914 2.32851 890.914 1.50008C890.914 0.671651 891.586 7.8076e-05 892.414 7.81484e-05L910.442 7.97245e-05ZM946.5 8.28768e-05C947.328 0.000247854 948 0.671758 948 1.50008C948 2.32841 947.328 2.99992 946.5 3.00008L928.472 3.00008C927.643 3.00008 926.972 2.32851 926.972 1.50008C926.972 0.671654 927.643 8.12283e-05 928.472 8.13007e-05L946.5 8.28768e-05ZM982.557 8.6029e-05C983.385 8.61014e-05 984.057 0.671659 984.057 1.50009C984.057 2.32851 983.385 3.00009 982.557 3.00009L964.528 3.00008C963.7 3.00008 963.028 2.32851 963.028 1.50008C963.028 0.671657 963.7 8.43805e-05 964.528 8.44529e-05L982.557 8.6029e-05ZM1018.61 8.91812e-05C1019.44 0.000221181 1020.11 0.671744 1020.11 1.50009C1020.11 2.32844 1019.44 2.99996 1018.61 3.00009L1000.58 3.00009C999.757 2.99986 999.085 2.32837 999.085 1.50009C999.085 0.671803 999.757 0.000318385 1000.58 8.7605e-05L1018.61 8.91812e-05ZM1054.67 9.23334e-05C1055.5 9.24058e-05 1056.17 0.671665 1056.17 1.50009C1056.17 2.32852 1055.5 3.00009 1054.67 3.00009L1036.64 3.00009C1035.81 3.00009 1035.14 2.32852 1035.14 1.50009C1035.14 0.671663 1035.81 9.06849e-05 1036.64 9.07573e-05L1054.67 9.23334e-05ZM1090.73 9.54856e-05C1091.56 0.000227476 1092.23 0.67175 1092.23 1.5001C1092.23 2.32844 1091.56 2.99996 1090.73 3.0001L1072.7 3.00009C1071.87 3.00009 1071.2 2.32852 1071.2 1.50009C1071.2 0.671667 1071.87 9.38371e-05 1072.7 9.39096e-05L1090.73 9.54856e-05ZM1126.79 9.86378e-05C1127.61 9.87103e-05 1128.29 0.671672 1128.29 1.5001C1128.29 2.32853 1127.61 3.0001 1126.79 3.0001L1108.76 3.0001C1107.93 3.0001 1107.26 2.32852 1107.26 1.5001C1107.26 0.67167 1107.93 9.69893e-05 1108.76 9.70617e-05L1126.79 9.86378e-05ZM1162.84 0.00010179C1163.67 0.00023378 1164.34 0.671756 1164.34 1.5001C1164.34 2.32845 1163.67 2.99997 1162.84 3.0001L1144.81 3.0001C1143.99 3.0001 1143.31 2.32853 1143.31 1.5001C1143.31 0.671673 1143.99 0.000100142 1144.81 0.000100214L1162.84 0.00010179ZM1198.9 0.000104942C1199.73 0.000105015 1200.4 0.671678 1200.4 1.50011C1200.4 2.32853 1199.73 3.00011 1198.9 3.0001L1180.87 3.0001C1180.04 3.0001 1179.37 2.32853 1179.37 1.5001C1179.37 0.671676 1180.04 0.000103294 1180.87 0.000103366L1198.9 0.000104942ZM1234.96 0.000108095C1235.79 0.000240104 1236.46 0.671762 1236.46 1.50011C1236.46 2.32845 1235.79 2.99998 1234.96 3.00011L1216.93 3.00011C1216.1 3.00011 1215.43 2.32853 1215.43 1.50011C1215.43 0.671679 1216.1 0.000106446 1216.93 0.000106518L1234.96 0.000108095ZM1262 0.000110459C1262.83 0.000110531 1263.5 0.671683 1263.5 1.50011C1263.5 2.32854 1262.83 3.00011 1262 3.00011L1252.99 3.00011C1252.16 3.00011 1251.49 2.32854 1251.49 1.50011C1251.49 0.671682 1252.16 0.000109598 1252.99 0.000109671L1262 0.000110459Z" fill="#333333"/>
</svg>
